<?xml version="1.0" encoding="utf-8"?>
<!-- Generator: Adobe Illustrator 27.5.0, SVG Export Plug-In . SVG Version: 6.00 Build 0)  -->
<svg version="1.1" id="Capa_1" xmlns="http://www.w3.org/2000/svg" xmlns:xlink="http://www.w3.org/1999/xlink" x="0px" y="0px"
	 viewBox="0 0 425.197 425.195" style="enable-background:new 0 0 425.197 425.195;" xml:space="preserve">
<g>
	<rect y="0" style="fill:#FFFFFF;" width="425.196" height="425.195"/>
	<g>
		<path style="fill:#C6C6C6;" d="M214.597,319.772c-93.193,0-168.742,12.146-168.742,27.127c0,4.412,6.557,8.576,18.18,12.259
			c-13.545,2.53-22.176,6.353-22.176,10.632c0,7.619,27.358,13.794,61.109,13.794c29.299,0,53.771-4.655,59.718-10.868
			c16.355,0.85,33.798,1.31,51.911,1.31c93.193,0,168.742-12.146,168.742-27.127C383.339,331.918,307.79,319.772,214.597,319.772z"
			/>
		<g>
			<path style="fill:#83774B;" d="M240.201,57.844c2.692,9.691,5.847,24.596,5.833,29.591c-5.569,0.829-13.154,1.87-22.132-1.247
				c-12.815-4.449-17.448-8.417-5.3-13.404C228.905,68.553,237.202,68.248,240.201,57.844z"/>
			<path style="fill:#C2AE7A;" d="M337.757,292.093c-1.482,10.382,22.887,35.86,17.546,43.333c-10.959,15.334-35.768,12-51.612,9.6
				c-20.943,11.985-51.006,15.734-86.783,15.734c-41.793,0-77.041,0.011-97.928-20.178c-14.824-0.186-35.324,3.814-41.824-8.186
				s15.744-37.858,15-41c-4.359-18.422,2.5-59.5,32.5-85c27.506-23.381,45.797-50.988,46.879-84.539
				c0.427-13.184-23.352-28.922-26-35.099c-9.5-22.165,35.668-21.665,35.668-21.665s6.498-9.008,17.832-16.167
				c15.834-10,31.93-10.783,39.744,4.175c9.573,18.322-32.756,16.064-20.556,26.322c15.064,12.667,44.312,4.42,62.069-1.957
				c0.992,17.234-29.441,41.711-29.811,45.779c-2.13,23.514,41.029,39.419,68.59,82.18
				C336.261,232.093,340.018,276.269,337.757,292.093z"/>
			<path style="fill:#E0DDCB;" d="M330.831,295.252c2.33,3.328,5.852,5.246,9.615,6.568c-1.881-3.813-3.048-7.215-2.689-9.728
				c1.016-7.104,0.811-19.933-1.272-34.318c-1.085,5.071-2.23,10.133-3.418,15.186C331.531,279.497,326.436,288.975,330.831,295.252
				z"/>
			<path style="opacity:0.6;fill:#FFFFFF;" d="M250.481,123.246c0.09-0.996,1.989-3.222,4.781-6.258
				c-19.758,8.983,12.719,41.28,20.987,49.169c6.814,6.503,13.929,12.672,20.528,19.403c6.695,6.828,13.842,14.033,18.281,22.607
				c4.365,8.434,7.046,17.601,11.295,26.087c2.332,4.659,5.186,8.925,8.308,13.003c-2.985-14.721-7.964-29.998-15.591-41.832
				C291.511,162.665,248.352,146.76,250.481,123.246z"/>
			<path style="fill:#E0DDCB;" d="M103.163,262.148c4.025-9.665,12.41-16.717,19.24-24.332
				c9.315-10.383,16.924-22.191,25.303-33.313c7.475-9.917,15.483-18.939,20.951-30.21c10.463-21.565,20.947-50.462,5.954-72.406
				c-5.382-7.874-12.056-14.989-15.954-23.786c-1.38-3.117-2.115-6.277-2.319-9.441c-8.53,2.942-14.999,8.309-10.804,18.099
				c2.648,6.177,26.427,21.915,26,35.099c-1.082,33.551-19.373,61.158-46.879,84.539c-26.653,22.654-35.031,57.594-33.514,78.029
				c2.852,3.346,5.453,6.691,6.695,10.451C100.815,284.092,98.784,272.665,103.163,262.148z"/>
			<path style="fill:#E0DDCB;" d="M210.181,93.986c4.594,10.543,5.076,21.247,5.034,32.166c0.448-2.095,0.944-4.18,1.474-6.251
				c1.953-7.659,3.58-15.384,5.465-23.044c1.135-4.61,2.94-8.791,5.338-12.534c-3.441-1.058-6.583-2.642-9.269-4.899
				c-12.2-10.258,30.129-8,20.556-26.322c-7.814-14.958-23.91-14.175-39.744-4.175c-8.882,5.61-14.776,12.336-16.919,14.992
				C192.913,72.31,204.554,81.073,210.181,93.986z"/>
			<path style="fill:#E0DDCB;" d="M243.166,119.563c0.083,3.22,1.335,5.936,4.061,7.648c-0.494-5.525,1.918-10.17,9.334-12.662
				c0.341-0.114,0.611-0.016,0.804,0.17c6.171-6.625,14.952-15.994,19.662-25.102c-8.827,5.129-17.097,11.033-25.091,17.436
				C248.009,110.199,243.022,113.938,243.166,119.563z"/>
			<path style="fill:#E0DDCB;" d="M330.624,339.426c-5.844,2.061-14.775,2.703-20.653,0.591c-5.393-1.936,0.011-11.936,0.893-17.05
				c-3.392,3.066-6.528,6.39-9.939,9.438c-19.213,17.17-45.814,14.836-69.66,13.12c-14.207-1.022-28.572-0.892-42.668-3.148
				c-13.438-2.151-26.047-7.604-38.99-11.613c-6.496-2.013-13.193-3.048-20.004-2.47c-3.687,0.315-7.325,0.988-11.008,1.338
				c-6.381,0.604-13.738,0.984-19.719-1.776c-5.301-2.446-9.113-8.325-7.178-14.327c1.69-5.239,5.867-9.714,5.145-15.56
				c-0.529-4.286-2.779-7.53-5.406-10.594c0.188,1.433,0.426,2.782,0.719,4.022c0.744,3.142-21.5,29-15,41s27,8,41.824,8.186
				c20.887,20.188,56.135,20.178,97.928,20.178c35.777,0,65.84-3.749,86.783-15.734c15.844,2.4,40.653,5.734,51.612-9.6
				c1.931-2.7-0.027-7.758-3.235-13.6C346.888,329.971,338.396,336.686,330.624,339.426z"/>
			<g>
				<path style="fill:#FFFFFF;" d="M210.075,178.185h13.273v8.511c1.508,0.365,4.918,1.795,10.227,4.295
					c0.781-0.676,1.406-1.484,1.875-2.42c0.832-1.563,1.873-2.344,3.123-2.344h3.904l1.404-0.077
					c0.781,0.104,1.275,0.833,1.484,2.186c0,0.105,0.156,0.857,0.469,2.264l3.592,19.051c0.051,0.313,0.156,0.833,0.313,1.561
					c0.883,3.957,1.326,6.403,1.326,7.341c0,1.198-1.482,1.796-4.45,1.796c-2.915,0-4.634-0.09-5.153-0.273
					c-0.521-0.182-1.381-1.497-2.576-3.943c-4.791-9.525-9.969-15.642-15.537-18.348v30.762
					c13.064,8.227,21.666,15.59,25.804,22.096c4.138,6.508,6.208,13.976,6.208,22.409c0,7.548-1.511,13.639-4.529,18.271
					c-3.02,4.634-6.571,8.094-10.658,10.384c-4.087,2.291-9.668,3.697-16.746,4.216v12.806h-13.274v-14.132
					c-4.268-1.769-7.104-3.123-8.511-4.06c-1.249-0.833-2.212-1.25-2.889-1.25c-1.145,0-2.16,1.12-3.045,3.358
					c-0.572,1.353-1.171,2.174-1.796,2.459c-0.624,0.287-2.551,0.43-5.777,0.43c-0.989,0-1.692-1.25-2.107-3.749l-4.765-27.639
					c-0.26-1.457-0.39-2.315-0.39-2.576c0-1.821,1.743-2.734,5.232-2.734c2.758,0,4.515,0.341,5.27,1.017
					c0.753,0.676,2.198,2.939,4.333,6.793c5.205,9.367,10.02,15.068,14.444,17.098v-36.15
					c-21.134-11.814-31.698-25.921-31.698-42.318c0-5.621,0.857-10.318,2.574-14.094c1.719-3.772,4.814-7.248,9.293-10.422
					c4.475-3.175,11.059-4.867,19.754-5.074V178.185z M209.997,221.128v-27.015c-3.592,0-6.455,1.105-8.589,3.317
					c-2.136,2.214-3.202,4.568-3.202,7.066C198.206,210.225,202.136,215.768,209.997,221.128z M223.427,266.101v30.372
					c7.807-1.197,11.711-5.412,11.711-12.648C235.138,277.371,231.233,271.463,223.427,266.101z"/>
			</g>
			<g>
				<path style="fill:#E7E6DD;" d="M216.801,318.726V178.185h-6.726v7.497c-8.694,0.207-15.279,1.899-19.754,5.074
					c-4.479,3.174-7.574,6.649-9.293,10.422c-1.717,3.775-2.574,8.473-2.574,14.094c0,16.398,10.564,30.504,31.698,42.318v36.15
					c-4.425-2.029-9.239-7.73-14.444-17.098c-2.135-3.854-3.58-6.117-4.333-6.793c-0.756-0.676-2.513-1.017-5.27-1.017
					c-3.488,0-5.232,0.913-5.232,2.734c0,0.261,0.13,1.119,0.39,2.576l4.765,27.639c0.415,2.499,1.118,3.749,2.107,3.749
					c3.227,0,5.153-0.143,5.777-0.43c0.625-0.285,1.224-1.106,1.796-2.459c0.885-2.238,1.9-3.358,3.045-3.358
					c0.677,0,1.64,0.417,2.889,1.25c1.406,0.936,4.242,2.291,8.511,4.06v14.132H216.801z M209.997,221.128
					c-7.861-5.36-11.791-10.903-11.791-16.631c0-2.498,1.066-4.852,3.202-7.066c2.134-2.212,4.997-3.317,8.589-3.317V221.128z"/>
			</g>
			<path style="fill:#988A57;" d="M216.017,80.771c0,0,2.596,17.686,2.774,32.41c0.192,15.878-7.323,32.412-7.323,32.412
				s8.846-15.85,11.064-31.307c3.002-20.918,0.586-29.693,0.586-29.693L216.017,80.771z"/>
			<path style="fill:#988A57;" d="M272.702,90.537c0,0-23.988,17.271-26.168,31.611c-1.832,12.056,10.516,29.389,10.516,29.389
				s-16.348-19.666-14.016-29.885C247.474,102.216,272.702,90.537,272.702,90.537z"/>
			<path style="fill:#988A57;" d="M165.548,98.992c0,0,15.301,9.385,14.078,23.84c-1.027,12.15-13.076,39.129-13.076,39.129
				s16.482-28.316,16.596-38.796C183.358,103.229,165.548,98.992,165.548,98.992z"/>
			<path style="fill:#E0DDCB;" d="M136.079,346.164c0,0-16.052-8.035-16.076-22.541c-0.02-12.194,9.664-40.108,9.664-40.108
				s-13.988,29.628-13.199,40.078C117.968,343.474,136.079,346.164,136.079,346.164z"/>
			<path style="fill:#E0DDCB;" d="M291.356,350.05c0,0,16.877-10.038,20.344-24.123c2.916-11.839-0.666-27.667-0.666-27.667
				s7.666,12.834,3.834,27C309.661,344.506,291.356,350.05,291.356,350.05z"/>
			<path style="fill:#83774B;" d="M180.452,67.427c0,0-10.392,14.884-15.918,18.667c-10.553,7.221-27.355-4.999-7-14
				C165.702,68.48,180.452,67.427,180.452,67.427z"/>
			<path style="fill:#83774B;" d="M247.558,85.655c0,0,25.144-1.773,32.734-8.188c-2.752-2.553-11.336-6.801-18.008-4.873
				C255.36,74.594,247.558,85.655,247.558,85.655z"/>
			<path style="fill:#83774B;" d="M155.034,92.469c0,0,7.059,0.611,14.125-5.25c4.176-3.465,9.894-13.805,17.375-22.125
				c11.889-13.222,20.933-18.729,29.482-19.834c15.261-1.972,21.186,13.167,21.186,13.167s-5.834-10.833-20.5-9.667
				c-10.657,0.849-17.43,8.23-28.334,19.334c-9.914,10.094-12.834,19.375-18.959,22.75
				C161.261,95.334,155.034,92.469,155.034,92.469z"/>
			<path style="fill:#F59D16;stroke:#B45F12;stroke-miterlimit:10;" d="M252.704,117.398c-1.982-0.928-4.088-0.613-4.702,0.701
				l-0.34,0.725c-0.461-0.59-1.119-1.129-1.94-1.512c-1.982-0.93-4.09-0.614-4.703,0.699l-0.494,1.056
				c-0.451-0.721-1.211-1.393-2.188-1.849c-1.982-0.928-4.088-0.613-4.703,0.701l-0.339,0.725c-0.461-0.59-1.12-1.13-1.94-1.514
				c-1.983-0.928-4.09-0.613-4.703,0.701l-0.17,0.359c-0.352-0.287-0.752-0.551-1.204-0.762c-1.983-0.928-4.089-0.614-4.704,0.701
				l-0.34,0.725c-0.461-0.59-1.119-1.13-1.939-1.514c-1.984-0.928-4.09-0.613-4.704,0.699l-0.493,1.057
				c-0.452-0.721-1.213-1.393-2.188-1.85c-1.982-0.926-4.09-0.613-4.703,0.702l-0.34,0.726c-0.461-0.591-1.119-1.131-1.941-1.515
				c-1.982-0.927-4.088-0.614-4.703,0.7l-0.627,1.342c-0.438-0.467-1-0.889-1.676-1.205c-1.982-0.926-4.088-0.613-4.703,0.701
				l-0.339,0.725c-0.461-0.591-1.12-1.13-1.94-1.515c-1.984-0.926-4.09-0.611-4.703,0.701l-0.494,1.057
				c-0.451-0.721-1.212-1.394-2.188-1.85c-1.982-0.928-4.088-0.613-4.703,0.701l-0.34,0.725c-0.461-0.59-1.119-1.13-1.941-1.514
				c-1.981-0.927-4.088-0.613-4.702,0.701l-5.008,10.709c-0.614,1.314,0.495,3.131,2.479,4.059c1.983,0.928,4.089,0.613,4.702-0.701
				l0.34-0.726c0.461,0.591,1.12,1.13,1.941,1.515c1.982,0.928,4.088,0.611,4.703-0.701l0.493-1.057
				c0.452,0.722,1.212,1.395,2.189,1.85c1.982,0.928,4.088,0.613,4.702-0.701l0.339-0.725c0.461,0.59,1.121,1.13,1.941,1.514
				c1.982,0.928,4.088,0.613,4.703-0.701l0.627-1.34c0.439,0.466,1.002,0.889,1.677,1.203c1.983,0.929,4.089,0.613,4.702-0.7
				l0.34-0.725c0.461,0.591,1.12,1.131,1.941,1.514c1.982,0.928,4.088,0.613,4.703-0.701l0.493-1.056
				c0.452,0.721,1.213,1.394,2.188,1.85c1.982,0.927,4.088,0.612,4.701-0.7l0.34-0.727c0.461,0.591,1.121,1.131,1.941,1.514
				c1.983,0.928,4.088,0.613,4.703-0.701l0.168-0.358c0.352,0.288,0.753,0.552,1.206,0.763c1.983,0.928,4.089,0.613,4.702-0.702
				l0.34-0.726c0.461,0.591,1.12,1.131,1.941,1.515c1.982,0.929,4.089,0.614,4.703-0.7l0.494-1.057
				c0.451,0.721,1.212,1.393,2.188,1.85c1.982,0.928,4.088,0.613,4.703-0.701l0.338-0.725c0.462,0.59,1.121,1.129,1.941,1.514
				c1.982,0.926,4.089,0.613,4.703-0.701l5.007-10.707C255.798,120.143,254.689,118.326,252.704,117.398z"/>
			<path style="opacity:0.6;fill:#FFFFFF;" d="M174.349,120.516c1.686,2.025,5.732-2.132,8.594-0.48
				c2.385,1.377,3.074-1.352,5.025-1.352c1.729,0,1.994,2.574,4.338,1.289c0.982-0.539,2.373-1.418,3.568-1.09
				c1.789,0.492,3.521,3.131,5.045-0.066c0.157-0.328,0.671-0.556,1.018-0.412c2.453,1.013,3.6,0.737,5.744-0.432
				c0.563-0.307,1.561-0.635,2.227-0.443c0.74,0.211,1.287,0.518,1.811,1.095c1.241,1.37,3.114,0.586,4.625,0.155
				c1.193-0.342,2.331,0.852,3.287,1.256c1.146,0.484,2.922-1.352,4.171-1.352c1.795,0,3.286,1.525,5.101,0.19
				c0.767-0.563,1.563-0.301,2.359-0.085c1.477,0.397,2.203,1.883,3.936,0.868c0.932-0.546,1.629-0.188,2.594,0.101
				c1.592,0.477,3.529,2.002,4.086-0.26c0.129-0.525,0.907-0.993,1.351-1.115c0.834-0.229,1.429,0.109,2.063,0.555
				c1.494,1.051,3.119,0.999,4.859,0.322c1.963-0.764,3.695-0.187,5.148,1.061c-0.18-1.088-1.141-2.242-2.594-2.922
				c-1.982-0.928-4.088-0.613-4.702,0.701l-0.34,0.725c-0.461-0.59-1.119-1.129-1.94-1.512c-1.982-0.93-4.09-0.614-4.703,0.699
				l-0.494,1.056c-0.451-0.721-1.211-1.393-2.188-1.849c-1.982-0.928-4.088-0.613-4.703,0.701l-0.339,0.725
				c-0.461-0.59-1.12-1.13-1.94-1.514c-1.983-0.928-4.09-0.613-4.703,0.701l-0.17,0.359c-0.352-0.287-0.752-0.551-1.204-0.762
				c-1.983-0.928-4.089-0.614-4.704,0.701l-0.34,0.725c-0.461-0.59-1.119-1.13-1.939-1.514c-1.984-0.928-4.09-0.613-4.704,0.699
				l-0.493,1.057c-0.452-0.721-1.213-1.393-2.188-1.85c-1.982-0.926-4.09-0.613-4.703,0.702l-0.34,0.726
				c-0.461-0.591-1.119-1.131-1.941-1.515c-1.982-0.927-4.088-0.614-4.703,0.7l-0.627,1.342c-0.438-0.467-1-0.889-1.676-1.205
				c-1.982-0.926-4.088-0.613-4.703,0.701l-0.339,0.725c-0.461-0.591-1.12-1.13-1.94-1.515c-1.984-0.926-4.09-0.611-4.703,0.701
				l-0.494,1.057c-0.451-0.721-1.212-1.394-2.188-1.85c-1.982-0.928-4.088-0.613-4.703,0.701l-0.34,0.725
				c-0.461-0.59-1.119-1.13-1.941-1.514c-1.981-0.927-4.088-0.613-4.702,0.701l-0.779,1.668
				C171.595,119.354,173.202,119.138,174.349,120.516z"/>
			<path style="fill:#E0DDCB;" d="M244.47,128.479c-6.686,0.649-13.145-2.838-19.91-2.744c-2.889,0.04-6.334,1.471-9.164,1.051
				c-2.49-0.371-4.631-0.769-7.189-0.063c-0.994,0.273-2.021,0.609-3.047,0.746c-1.336,0.179-4.351-0.412-5.45,0.342
				c-1.128,0.773-1.843,1.26-3.169,1.475c-1.773,0.287-2.547-2.264-4.21-1.951c-1.046,0.197-1.961,0.586-2.956,0.951
				c-1.255,0.461-0.912-1.072-3.504-0.024c-2.016,0.815-3.051,0.084-5.215,0.118c-2.391,0.039-3.818,0.844-6.051-0.197
				c-2.041-0.953-2.518,1.135-4.304,1.135c-1.696,0-2.825-0.965-3.467-2.264l-0.977,2.088c-0.614,1.314,0.495,3.131,2.479,4.059
				c1.983,0.928,4.089,0.613,4.702-0.701l0.34-0.726c0.461,0.591,1.12,1.13,1.941,1.515c1.982,0.928,4.088,0.611,4.703-0.701
				l0.493-1.057c0.452,0.722,1.212,1.395,2.189,1.85c1.982,0.928,4.088,0.613,4.702-0.701l0.339-0.725
				c0.461,0.59,1.121,1.13,1.941,1.514c1.982,0.928,4.088,0.613,4.703-0.701l0.627-1.34c0.439,0.466,1.002,0.889,1.677,1.203
				c1.983,0.929,4.089,0.613,4.702-0.7l0.34-0.725c0.461,0.591,1.12,1.131,1.941,1.514c1.982,0.928,4.088,0.613,4.703-0.701
				l0.493-1.056c0.452,0.721,1.213,1.394,2.188,1.85c1.982,0.927,4.088,0.612,4.701-0.7l0.34-0.727
				c0.461,0.591,1.121,1.131,1.941,1.514c1.983,0.928,4.088,0.613,4.703-0.701l0.168-0.358c0.352,0.288,0.753,0.552,1.206,0.763
				c1.983,0.928,4.089,0.613,4.702-0.702l0.34-0.726c0.461,0.591,1.12,1.131,1.941,1.515c1.982,0.929,4.089,0.614,4.703-0.7
				l0.494-1.057c0.451,0.721,1.212,1.393,2.188,1.85c1.982,0.928,4.088,0.613,4.703-0.701l0.338-0.725
				c0.462,0.59,1.121,1.129,1.941,1.514c1.982,0.926,4.089,0.613,4.703-0.701l3.432-7.339
				C251.093,126.791,248.073,128.129,244.47,128.479z"/>
		</g>
		<g>
			<g>
				<path style="fill:#8D5800;" d="M53.256,359.157c0,8.346,22.196,15.111,49.571,15.111c27.379,0,49.576-6.766,49.576-15.111
					v-8.926l-99.148,0.49V359.157z"/>
				<path style="fill:#AF6C00;" d="M152.679,351.038c0,7.058-22.231,12.781-49.658,12.781c-27.422,0-49.654-5.724-49.654-12.781
					c0-7.06,22.232-12.783,49.654-12.783C130.447,338.255,152.679,343.978,152.679,351.038z"/>
				<path style="fill:#F9B233;" d="M151.02,351.038c0,6.821-21.489,12.355-48,12.355c-26.508,0-47.999-5.533-47.999-12.355
					c0-6.826,21.491-12.357,47.999-12.357C129.531,338.681,151.02,344.212,151.02,351.038z"/>
				<path style="fill:#FECA33;" d="M131.071,355.991c-9.816,1.041-20.756,1.322-30.952,0.463
					c-10.312-0.869-19.122-2.665-24.596-5.086c-5.565-2.463-7.95-5.391-7.241-8.228c-7.227,2.102-11.613,4.867-11.613,7.898
					c0,6.589,20.754,11.93,46.352,11.93c23.16,0,42.35-4.371,45.801-10.083C143.886,354.234,137.653,355.292,131.071,355.991z"/>
				<path style="fill:#AF6C00;" d="M141.935,351.134c0,5.571-17.545,10.086-39.191,10.086c-21.643,0-39.188-4.515-39.188-10.086
					c0-5.571,17.545-10.088,39.188-10.088C124.39,341.046,141.935,345.563,141.935,351.134z"/>
				<path style="fill:#F9B233;" d="M138.481,351.134c0,5.078-16.001,9.197-35.738,9.197c-19.734,0-35.735-4.119-35.735-9.197
					c0-5.08,16.001-9.199,35.735-9.199C122.48,341.935,138.481,346.054,138.481,351.134z"/>
				<path style="fill:#EDEDED;" d="M102.743,341.929c-6.484,0-12.56,0.447-17.805,1.224c5.344,1.433,9.318,3.255,10.879,5.206
					c2.729,3.416,2.452,8.411-6.596,11.297c4.17,0.439,8.736,0.682,13.521,0.682c19.752,0,35.762-4.121,35.762-9.203
					C138.505,346.05,122.495,341.929,102.743,341.929z"/>
				<path style="fill:#AF6C00;" d="M116.331,351.383c-0.643-0.378-1.568-0.707-2.738-0.973c-1.1-0.259-2.359-0.459-3.751-0.595
					c-1.012-0.1-2.31-0.208-3.868-0.324v-1.613c0.384,0.12,0.658,0.264,0.837,0.438c0.667,0.627,2.319,0.972,4.657,0.972
					c1.268,0,2.407-0.121,3.299-0.35c0.89-0.23,1.363-0.52,1.363-0.837c0-0.249-0.25-0.517-0.746-0.798
					c-0.467-0.264-1.131-0.521-1.951-0.763c-1.094-0.331-2.396-0.581-3.875-0.744c-1.046-0.117-2.244-0.204-3.584-0.263V345.2
					c0-0.682-1.627-0.926-3.153-0.926c-1.516,0-3.13,0.247-3.13,0.939v0.315c-3.097,0.126-5.569,0.423-7.363,0.888
					c-2.1,0.543-3.164,1.242-3.164,2.078c0,0.639,0.554,1.177,1.646,1.6c1.073,0.413,2.488,0.735,4.209,0.959
					c1.298,0.17,2.866,0.326,4.672,0.469v2.007c-0.016-0.002-0.025-0.003-0.039-0.007c-0.5-0.115-0.874-0.24-1.109-0.373
					c-0.303-0.169-0.673-0.424-1.092-0.75c-0.305-0.248-0.868-0.447-1.68-0.588c-0.774-0.137-1.702-0.205-2.76-0.205
					c-1.339,0-2.527,0.127-3.439,0.369c-0.895,0.236-1.37,0.524-1.37,0.832c0,0.328,0.272,0.662,0.811,0.998
					c0.529,0.33,1.352,0.648,2.44,0.948c1.094,0.3,2.465,0.554,4.077,0.753c1.231,0.152,2.624,0.264,4.161,0.336v1.365
					c0,0.279,0.199,0.494,0.616,0.656c0.31,0.121,1.049,0.321,2.563,0.321c1.809,0,2.488-0.292,2.695-0.417
					c0.279-0.17,0.408-0.394,0.408-0.705v-1.227c2-0.082,3.795-0.247,5.345-0.488c1.95-0.305,3.45-0.705,4.464-1.189
					c1-0.478,1.509-1.001,1.509-1.55C117.291,352.171,116.968,351.757,116.331,351.383z M98.438,348.337
					c0-0.344,0.47-0.448,0.621-0.483c0.183-0.043,0.396-0.08,0.631-0.117v1.191c-0.265-0.044-0.487-0.086-0.674-0.131
					C98.876,348.765,98.438,348.661,98.438,348.337z M108.038,352.82c0,0.241-0.31,0.448-0.953,0.632
					c-0.307,0.087-0.676,0.161-1.111,0.223v-1.624c0.514,0.067,0.939,0.14,1.273,0.216
					C107.589,352.347,108.038,352.487,108.038,352.82z"/>
				<g>
					<path style="fill:#F9DA1B;" d="M104.4,345.202v0.685c1.763,0.047,3.273,0.141,4.534,0.279c1.26,0.141,2.358,0.353,3.301,0.637
						c0.738,0.216,1.311,0.439,1.715,0.668c0.403,0.228,0.604,0.439,0.604,0.63c0,0.212-0.299,0.396-0.9,0.55
						c-0.603,0.154-1.33,0.232-2.187,0.232c-1.614,0-2.659-0.225-3.139-0.675c-0.544-0.53-1.853-0.88-3.928-1.056v2.645
						c2.042,0.146,3.669,0.276,4.882,0.395c1.209,0.119,2.292,0.291,3.247,0.517c1.022,0.23,1.809,0.51,2.36,0.836
						c0.552,0.324,0.826,0.678,0.826,1.065c0,0.484-0.441,0.938-1.321,1.357c-0.882,0.422-2.181,0.768-3.892,1.033
						c-1.713,0.268-3.745,0.428-6.103,0.478v1.585c0,0.249-0.095,0.431-0.284,0.545c-0.19,0.115-0.607,0.172-1.246,0.172
						c-0.595,0-1.012-0.046-1.25-0.139c-0.239-0.094-0.356-0.238-0.356-0.434v-1.717c-1.928-0.056-3.614-0.172-5.054-0.35
						c-1.441-0.178-2.645-0.398-3.606-0.664c-0.964-0.266-1.678-0.542-2.138-0.826c-0.461-0.287-0.691-0.568-0.691-0.844
						c0-0.203,0.309-0.387,0.925-0.551c0.618-0.163,1.388-0.244,2.311-0.244c0.742,0,1.367,0.045,1.878,0.134
						c0.51,0.089,0.864,0.214,1.062,0.375c0.444,0.347,0.829,0.613,1.163,0.798c0.329,0.186,0.824,0.354,1.493,0.506
						c0.666,0.153,1.552,0.27,2.657,0.35v-2.957c-2.209-0.156-4.056-0.332-5.535-0.525c-1.483-0.193-2.686-0.467-3.606-0.822
						c-0.926-0.358-1.385-0.815-1.385-1.373c0-0.73,0.902-1.328,2.705-1.795c1.805-0.467,4.412-0.738,7.821-0.815v-0.674
						c0-0.355,0.52-0.535,1.555-0.535C103.872,344.679,104.4,344.854,104.4,345.202z M101.264,349.564v-2.436
						c-1.385,0.105-2.463,0.247-3.237,0.421c-0.777,0.173-1.162,0.436-1.162,0.788c0,0.334,0.361,0.588,1.088,0.76
						C98.677,349.269,99.78,349.425,101.264,349.564z M104.4,351.452v2.786c1.664-0.084,2.948-0.257,3.854-0.514
						c0.906-0.26,1.359-0.561,1.359-0.904c0-0.368-0.443-0.655-1.32-0.855C107.41,351.763,106.114,351.593,104.4,351.452z"/>
				</g>
			</g>
			<g>
				<path style="fill:#8D5800;" d="M53.256,347.171c0,8.346,22.196,15.11,49.571,15.11c27.379,0,49.576-6.765,49.576-15.11v-8.926
					l-99.148,0.49V347.171z"/>
				<path style="fill:#AF6C00;" d="M152.679,339.05c0,7.058-22.231,12.781-49.658,12.781c-27.422,0-49.654-5.724-49.654-12.781
					c0-7.06,22.232-12.781,49.654-12.781C130.447,326.269,152.679,331.99,152.679,339.05z"/>
				<path style="fill:#F9B233;" d="M151.02,339.05c0,6.823-21.489,12.354-48,12.354c-26.508,0-47.999-5.531-47.999-12.354
					c0-6.824,21.491-12.355,47.999-12.355C129.531,326.694,151.02,332.226,151.02,339.05z"/>
				<path style="fill:#FECA33;" d="M131.071,344.003c-9.816,1.043-20.756,1.322-30.952,0.465
					c-10.312-0.871-19.122-2.665-24.596-5.088c-5.565-2.463-7.95-5.389-7.241-8.229c-7.227,2.104-11.613,4.869-11.613,7.898
					c0,6.591,20.754,11.931,46.352,11.931c23.16,0,42.35-4.37,45.801-10.083C143.886,342.247,137.653,343.306,131.071,344.003z"/>
				<path style="fill:#AF6C00;" d="M141.935,339.146c0,5.572-17.545,10.088-39.191,10.088c-21.643,0-39.188-4.516-39.188-10.088
					c0-5.57,17.545-10.086,39.188-10.086C124.39,329.06,141.935,333.575,141.935,339.146z"/>
				<path style="fill:#F9B233;" d="M138.481,339.146c0,5.08-16.001,9.199-35.738,9.199c-19.734,0-35.735-4.119-35.735-9.199
					c0-5.08,16.001-9.199,35.735-9.199C122.48,329.946,138.481,334.065,138.481,339.146z"/>
				<path style="fill:#EDEDED;" d="M102.743,329.941c-6.484,0-12.56,0.446-17.805,1.224c5.344,1.432,9.318,3.256,10.879,5.205
					c2.729,3.417,2.452,8.413-6.596,11.299c4.17,0.436,8.736,0.682,13.521,0.682c19.752,0,35.762-4.121,35.762-9.205
					C138.505,334.062,122.495,329.941,102.743,329.941z"/>
				<path style="fill:#AF6C00;" d="M116.331,339.396c-0.643-0.379-1.568-0.707-2.738-0.973c-1.1-0.258-2.359-0.459-3.751-0.594
					c-1.012-0.1-2.31-0.208-3.868-0.324v-1.613c0.384,0.118,0.658,0.264,0.837,0.438c0.667,0.626,2.319,0.973,4.657,0.973
					c1.268,0,2.407-0.121,3.299-0.352c0.89-0.229,1.363-0.517,1.363-0.836c0-0.25-0.25-0.516-0.746-0.797
					c-0.467-0.266-1.131-0.523-1.951-0.763c-1.094-0.331-2.396-0.583-3.875-0.745c-1.046-0.116-2.244-0.203-3.584-0.263v-0.333
					c0-0.684-1.627-0.926-3.153-0.926c-1.516,0-3.13,0.247-3.13,0.938v0.316c-3.097,0.125-5.569,0.424-7.363,0.887
					c-2.1,0.544-3.164,1.242-3.164,2.078c0,0.64,0.554,1.177,1.646,1.6c1.073,0.414,2.488,0.737,4.209,0.961
					c1.298,0.17,2.866,0.326,4.672,0.468v2.008c-0.016-0.003-0.025-0.005-0.039-0.009c-0.5-0.113-0.874-0.238-1.109-0.373
					c-0.303-0.168-0.673-0.422-1.092-0.75c-0.305-0.248-0.868-0.446-1.68-0.588c-0.774-0.135-1.702-0.203-2.76-0.203
					c-1.339,0-2.527,0.125-3.439,0.367c-0.895,0.238-1.37,0.525-1.37,0.832c0,0.33,0.272,0.664,0.811,1
					c0.529,0.328,1.352,0.648,2.44,0.947c1.094,0.3,2.465,0.554,4.077,0.754c1.231,0.15,2.624,0.264,4.161,0.336v1.364
					c0,0.279,0.199,0.493,0.616,0.656c0.31,0.12,1.049,0.321,2.563,0.321c1.809,0,2.488-0.292,2.695-0.418
					c0.279-0.168,0.408-0.393,0.408-0.705v-1.227c2-0.082,3.795-0.246,5.345-0.486c1.95-0.305,3.45-0.706,4.464-1.189
					c1-0.48,1.509-1.002,1.509-1.55C117.291,340.183,116.968,339.769,116.331,339.396z M98.438,336.349
					c0-0.342,0.47-0.448,0.621-0.482c0.183-0.041,0.396-0.079,0.631-0.117v1.191c-0.265-0.043-0.487-0.086-0.674-0.129
					C98.876,336.778,98.438,336.674,98.438,336.349z M108.038,340.833c0,0.242-0.31,0.447-0.953,0.631
					c-0.307,0.088-0.676,0.163-1.111,0.225v-1.625c0.514,0.066,0.939,0.141,1.273,0.217
					C107.589,340.358,108.038,340.499,108.038,340.833z"/>
				<g>
					<path style="fill:#F9DA1B;" d="M104.4,333.214v0.688c1.763,0.047,3.273,0.139,4.534,0.279c1.26,0.141,2.358,0.352,3.301,0.637
						c0.738,0.216,1.311,0.438,1.715,0.666c0.403,0.23,0.604,0.44,0.604,0.631c0,0.213-0.299,0.397-0.9,0.551
						c-0.603,0.154-1.33,0.232-2.187,0.232c-1.614,0-2.659-0.225-3.139-0.675c-0.544-0.53-1.853-0.882-3.928-1.056v2.646
						c2.042,0.144,3.669,0.275,4.882,0.394c1.209,0.119,2.292,0.292,3.247,0.516c1.022,0.232,1.809,0.512,2.36,0.836
						c0.552,0.324,0.826,0.68,0.826,1.065c0,0.483-0.441,0.936-1.321,1.358c-0.882,0.421-2.181,0.766-3.892,1.033
						c-1.713,0.267-3.745,0.426-6.103,0.477v1.584c0,0.25-0.095,0.433-0.284,0.547c-0.19,0.115-0.607,0.172-1.246,0.172
						c-0.595,0-1.012-0.046-1.25-0.139c-0.239-0.096-0.356-0.238-0.356-0.435v-1.716c-1.928-0.056-3.614-0.172-5.054-0.352
						c-1.441-0.178-2.645-0.398-3.606-0.664c-0.964-0.264-1.678-0.54-2.138-0.826c-0.461-0.287-0.691-0.566-0.691-0.844
						c0-0.201,0.309-0.387,0.925-0.549c0.618-0.163,1.388-0.246,2.311-0.246c0.742,0,1.367,0.045,1.878,0.135
						c0.51,0.088,0.864,0.215,1.062,0.374c0.444,0.349,0.829,0.614,1.163,0.8c0.329,0.184,0.824,0.352,1.493,0.506
						c0.666,0.151,1.552,0.27,2.657,0.35v-2.959c-2.209-0.155-4.056-0.33-5.535-0.523c-1.483-0.193-2.686-0.468-3.606-0.822
						c-0.926-0.357-1.385-0.816-1.385-1.375c0-0.73,0.902-1.328,2.705-1.793c1.805-0.467,4.412-0.738,7.821-0.815v-0.676
						c0-0.354,0.52-0.533,1.555-0.533C103.872,332.692,104.4,332.866,104.4,333.214z M101.264,337.576v-2.436
						c-1.385,0.107-2.463,0.247-3.237,0.422c-0.777,0.173-1.162,0.435-1.162,0.787c0,0.335,0.361,0.59,1.088,0.76
						C98.677,337.28,99.78,337.438,101.264,337.576z M104.4,339.466v2.786c1.664-0.086,2.948-0.258,3.854-0.516
						c0.906-0.258,1.359-0.561,1.359-0.903c0-0.367-0.443-0.654-1.32-0.855C107.41,339.776,106.114,339.607,104.4,339.466z"/>
				</g>
			</g>
			<g>
				<path style="fill:#8D5800;" d="M53.256,335.183c0,8.346,22.196,15.111,49.571,15.111c27.379,0,49.576-6.766,49.576-15.111
					v-8.924l-99.148,0.489V335.183z"/>
				<path style="fill:#AF6C00;" d="M152.679,327.064c0,7.057-22.231,12.781-49.658,12.781c-27.422,0-49.654-5.725-49.654-12.781
					c0-7.061,22.232-12.783,49.654-12.783C130.447,314.28,152.679,320.003,152.679,327.064z"/>
				<path style="fill:#F9B233;" d="M151.02,327.064c0,6.821-21.489,12.354-48,12.354c-26.508,0-47.999-5.533-47.999-12.354
					c0-6.825,21.491-12.357,47.999-12.357C129.531,314.706,151.02,320.238,151.02,327.064z"/>
				<path style="fill:#FECA33;" d="M131.071,332.017c-9.816,1.041-20.756,1.322-30.952,0.463
					c-10.312-0.869-19.122-2.665-24.596-5.086c-5.565-2.463-7.95-5.391-7.241-8.228c-7.227,2.103-11.613,4.869-11.613,7.898
					c0,6.589,20.754,11.93,46.352,11.93c23.16,0,42.35-4.371,45.801-10.083C143.886,330.259,137.653,331.317,131.071,332.017z"/>
				<path style="fill:#AF6C00;" d="M141.935,327.159c0,5.571-17.545,10.088-39.191,10.088c-21.643,0-39.188-4.517-39.188-10.088
					c0-5.571,17.545-10.088,39.188-10.088C124.39,317.071,141.935,321.588,141.935,327.159z"/>
				<path style="fill:#F9B233;" d="M138.481,327.159c0,5.079-16.001,9.199-35.738,9.199c-19.734,0-35.735-4.12-35.735-9.199
					c0-5.08,16.001-9.199,35.735-9.199C122.48,317.96,138.481,322.079,138.481,327.159z"/>
				<path style="fill:#EDEDED;" d="M102.743,317.954c-6.484,0-12.56,0.447-17.805,1.224c5.344,1.431,9.318,3.255,10.879,5.206
					c2.729,3.416,2.452,8.411-6.596,11.296c4.17,0.44,8.736,0.683,13.521,0.683c19.752,0,35.762-4.119,35.762-9.203
					C138.505,322.075,122.495,317.954,102.743,317.954z"/>
				<path style="fill:#AF6C00;" d="M116.331,327.407c-0.643-0.377-1.568-0.705-2.738-0.971c-1.1-0.26-2.359-0.46-3.751-0.596
					c-1.012-0.1-2.31-0.208-3.868-0.324v-1.613c0.384,0.12,0.658,0.264,0.837,0.438c0.667,0.628,2.319,0.973,4.657,0.973
					c1.268,0,2.407-0.121,3.299-0.35c0.89-0.23,1.363-0.52,1.363-0.838c0-0.248-0.25-0.514-0.746-0.795
					c-0.467-0.266-1.131-0.523-1.951-0.765c-1.094-0.329-2.396-0.582-3.875-0.745c-1.046-0.116-2.244-0.203-3.584-0.262v-0.332
					c0-0.684-1.627-0.928-3.153-0.928c-1.516,0-3.13,0.248-3.13,0.939v0.316c-3.097,0.125-5.569,0.423-7.363,0.887
					c-2.1,0.543-3.164,1.24-3.164,2.078c0,0.64,0.554,1.177,1.646,1.6c1.073,0.413,2.488,0.736,4.209,0.959
					c1.298,0.17,2.866,0.326,4.672,0.469v2.009c-0.016-0.003-0.025-0.005-0.039-0.009c-0.5-0.115-0.874-0.239-1.109-0.373
					c-0.303-0.168-0.673-0.422-1.092-0.75c-0.305-0.248-0.868-0.447-1.68-0.588c-0.774-0.137-1.702-0.205-2.76-0.205
					c-1.339,0-2.527,0.127-3.439,0.368c-0.895,0.237-1.37,0.525-1.37,0.833c0,0.328,0.272,0.664,0.811,0.998
					c0.529,0.33,1.352,0.649,2.44,0.948c1.094,0.301,2.465,0.555,4.077,0.753c1.231,0.152,2.624,0.264,4.161,0.336v1.365
					c0,0.279,0.199,0.494,0.616,0.656c0.31,0.119,1.049,0.321,2.563,0.321c1.809,0,2.488-0.292,2.695-0.417
					c0.279-0.17,0.408-0.395,0.408-0.705v-1.226c2-0.085,3.795-0.248,5.345-0.489c1.95-0.305,3.45-0.704,4.464-1.188
					c1-0.48,1.509-1.002,1.509-1.551C117.291,328.196,116.968,327.782,116.331,327.407z M98.438,324.362
					c0-0.344,0.47-0.448,0.621-0.482c0.183-0.041,0.396-0.08,0.631-0.119v1.191c-0.265-0.041-0.487-0.084-0.674-0.129
					C98.876,324.79,98.438,324.687,98.438,324.362z M108.038,328.846c0,0.241-0.31,0.448-0.953,0.632
					c-0.307,0.088-0.676,0.162-1.111,0.225v-1.625c0.514,0.066,0.939,0.139,1.273,0.216
					C107.589,328.372,108.038,328.513,108.038,328.846z"/>
				<g>
					<path style="fill:#F9DA1B;" d="M104.4,321.228v0.685c1.763,0.047,3.273,0.141,4.534,0.281c1.26,0.139,2.358,0.351,3.301,0.637
						c0.738,0.215,1.311,0.438,1.715,0.666c0.403,0.228,0.604,0.439,0.604,0.629c0,0.213-0.299,0.396-0.9,0.552
						c-0.603,0.153-1.33,0.231-2.187,0.231c-1.614,0-2.659-0.224-3.139-0.674c-0.544-0.531-1.853-0.881-3.928-1.057v2.646
						c2.042,0.145,3.669,0.276,4.882,0.395c1.209,0.118,2.292,0.29,3.247,0.515c1.022,0.233,1.809,0.511,2.36,0.836
						c0.552,0.325,0.826,0.68,0.826,1.065c0,0.484-0.441,0.938-1.321,1.359c-0.882,0.421-2.181,0.766-3.892,1.031
						c-1.713,0.269-3.745,0.428-6.103,0.479v1.584c0,0.249-0.095,0.432-0.284,0.547c-0.19,0.115-0.607,0.17-1.246,0.17
						c-0.595,0-1.012-0.046-1.25-0.139c-0.239-0.094-0.356-0.238-0.356-0.434v-1.717c-1.928-0.055-3.614-0.172-5.054-0.35
						c-1.441-0.178-2.645-0.398-3.606-0.665c-0.964-0.265-1.678-0.539-2.138-0.825c-0.461-0.287-0.691-0.568-0.691-0.844
						c0-0.203,0.309-0.389,0.925-0.549c0.618-0.163,1.388-0.246,2.311-0.246c0.742,0,1.367,0.045,1.878,0.134
						c0.51,0.089,0.864,0.214,1.062,0.375c0.444,0.347,0.829,0.614,1.163,0.798c0.329,0.186,0.824,0.354,1.493,0.506
						c0.666,0.153,1.552,0.27,2.657,0.351v-2.958c-2.209-0.156-4.056-0.332-5.535-0.525c-1.483-0.193-2.686-0.467-3.606-0.822
						c-0.926-0.357-1.385-0.814-1.385-1.375c0-0.729,0.902-1.326,2.705-1.793c1.805-0.467,4.412-0.738,7.821-0.815v-0.674
						c0-0.355,0.52-0.533,1.555-0.533C103.872,320.706,104.4,320.878,104.4,321.228z M101.264,325.589v-2.435
						c-1.385,0.107-2.463,0.246-3.237,0.421c-0.777,0.173-1.162,0.436-1.162,0.788c0,0.334,0.361,0.59,1.088,0.76
						C98.677,325.294,99.78,325.45,101.264,325.589z M104.4,327.479v2.787c1.664-0.086,2.948-0.258,3.854-0.517
						c0.906-0.258,1.359-0.56,1.359-0.903c0-0.368-0.443-0.653-1.32-0.855C107.41,327.788,106.114,327.62,104.4,327.479z"/>
				</g>
			</g>
			<g>
				<path style="fill:#8D5800;" d="M53.256,323.196c0,8.346,22.196,15.111,49.571,15.111c27.379,0,49.576-6.766,49.576-15.111
					v-8.924l-99.148,0.487V323.196z"/>
				<path style="fill:#AF6C00;" d="M152.679,315.075c0,7.059-22.231,12.781-49.658,12.781c-27.422,0-49.654-5.723-49.654-12.781
					c0-7.06,22.232-12.781,49.654-12.781C130.447,302.294,152.679,308.016,152.679,315.075z"/>
				<path style="fill:#F9B233;" d="M151.02,315.075c0,6.823-21.489,12.355-48,12.355c-26.508,0-47.999-5.532-47.999-12.355
					c0-6.824,21.491-12.355,47.999-12.355C129.531,302.72,151.02,308.251,151.02,315.075z"/>
				<path style="fill:#FECA33;" d="M131.071,320.028c-9.816,1.041-20.756,1.323-30.952,0.465
					c-10.312-0.871-19.122-2.665-24.596-5.087c-5.565-2.462-7.95-5.392-7.241-8.23c-7.227,2.104-11.613,4.869-11.613,7.898
					c0,6.591,20.754,11.931,46.352,11.931c23.16,0,42.35-4.37,45.801-10.083C143.886,318.272,137.653,319.331,131.071,320.028z"/>
				<path style="fill:#AF6C00;" d="M141.935,315.171c0,5.573-17.545,10.088-39.191,10.088c-21.643,0-39.188-4.515-39.188-10.088
					c0-5.57,17.545-10.086,39.188-10.086C124.39,305.085,141.935,309.601,141.935,315.171z"/>
				<path style="fill:#F9B233;" d="M138.481,315.171c0,5.081-16.001,9.199-35.738,9.199c-19.734,0-35.735-4.118-35.735-9.199
					c0-5.078,16.001-9.199,35.735-9.199C122.48,305.972,138.481,310.093,138.481,315.171z"/>
				<path style="fill:#EDEDED;" d="M102.743,305.967c-6.484,0-12.56,0.448-17.805,1.225c5.344,1.431,9.318,3.255,10.879,5.204
					c2.729,3.417,2.452,8.412-6.596,11.297c4.17,0.44,8.736,0.684,13.521,0.684c19.752,0,35.762-4.121,35.762-9.205
					C138.505,310.089,122.495,305.967,102.743,305.967z"/>
				<path style="fill:#AF6C00;" d="M116.331,315.423c-0.643-0.379-1.568-0.708-2.738-0.975c-1.1-0.258-2.359-0.458-3.751-0.594
					c-1.012-0.101-2.31-0.208-3.868-0.324v-1.613c0.384,0.118,0.658,0.264,0.837,0.438c0.667,0.627,2.319,0.973,4.657,0.973
					c1.268,0,2.407-0.122,3.299-0.352c0.89-0.229,1.363-0.518,1.363-0.836c0-0.25-0.25-0.516-0.746-0.797
					c-0.467-0.266-1.131-0.523-1.951-0.763c-1.094-0.331-2.396-0.582-3.875-0.745c-1.046-0.117-2.244-0.205-3.584-0.262v-0.333
					c0-0.685-1.627-0.929-3.153-0.929c-1.516,0-3.13,0.249-3.13,0.94v0.315c-3.097,0.125-5.569,0.424-7.363,0.887
					c-2.1,0.544-3.164,1.242-3.164,2.078c0,0.64,0.554,1.179,1.646,1.6c1.073,0.413,2.488,0.737,4.209,0.961
					c1.298,0.169,2.866,0.326,4.672,0.467v2.009c-0.016-0.003-0.025-0.005-0.039-0.008c-0.5-0.116-0.874-0.239-1.109-0.372
					c-0.303-0.17-0.673-0.424-1.092-0.75c-0.305-0.25-0.868-0.449-1.68-0.59c-0.774-0.135-1.702-0.203-2.76-0.203
					c-1.339,0-2.527,0.127-3.439,0.367c-0.895,0.238-1.37,0.526-1.37,0.834c0,0.328,0.272,0.662,0.811,0.998
					c0.529,0.33,1.352,0.647,2.44,0.948c1.094,0.299,2.465,0.554,4.077,0.752c1.231,0.151,2.624,0.265,4.161,0.335v1.367
					c0,0.277,0.199,0.492,0.616,0.655c0.31,0.12,1.049,0.322,2.563,0.322c1.809,0,2.488-0.292,2.695-0.418
					c0.279-0.169,0.408-0.394,0.408-0.706v-1.225c2-0.084,3.795-0.247,5.345-0.49c1.95-0.304,3.45-0.704,4.464-1.188
					c1-0.479,1.509-1,1.509-1.55C117.291,316.209,116.968,315.796,116.331,315.423z M98.438,312.376c0-0.344,0.47-0.449,0.621-0.484
					c0.183-0.041,0.396-0.08,0.631-0.117v1.191c-0.265-0.043-0.487-0.086-0.674-0.129C98.876,312.804,98.438,312.699,98.438,312.376
					z M108.038,316.858c0,0.242-0.31,0.449-0.953,0.633c-0.307,0.086-0.676,0.161-1.111,0.223v-1.624
					c0.514,0.067,0.939,0.14,1.273,0.217C107.589,316.384,108.038,316.526,108.038,316.858z"/>
				<g>
					<path style="fill:#F9DA1B;" d="M104.4,309.241v0.686c1.763,0.047,3.273,0.141,4.534,0.279c1.26,0.141,2.358,0.353,3.301,0.637
						c0.738,0.215,1.311,0.438,1.715,0.668c0.403,0.228,0.604,0.439,0.604,0.629c0,0.213-0.299,0.396-0.9,0.551
						c-0.603,0.154-1.33,0.232-2.187,0.232c-1.614,0-2.659-0.225-3.139-0.676c-0.544-0.529-1.853-0.881-3.928-1.056v2.646
						c2.042,0.146,3.669,0.276,4.882,0.394c1.209,0.12,2.292,0.292,3.247,0.517c1.022,0.233,1.809,0.511,2.36,0.835
						c0.552,0.325,0.826,0.681,0.826,1.065c0,0.485-0.441,0.936-1.321,1.358c-0.882,0.421-2.181,0.766-3.892,1.033
						c-1.713,0.267-3.745,0.426-6.103,0.477v1.584c0,0.25-0.095,0.434-0.284,0.547c-0.19,0.115-0.607,0.172-1.246,0.172
						c-0.595,0-1.012-0.047-1.25-0.139c-0.239-0.096-0.356-0.238-0.356-0.434v-1.718c-1.928-0.054-3.614-0.171-5.054-0.349
						c-1.441-0.178-2.645-0.4-3.606-0.665c-0.964-0.267-1.678-0.541-2.138-0.827c-0.461-0.287-0.691-0.566-0.691-0.842
						c0-0.203,0.309-0.389,0.925-0.551c0.618-0.163,1.388-0.244,2.311-0.244c0.742,0,1.367,0.043,1.878,0.133
						c0.51,0.088,0.864,0.214,1.062,0.376c0.444,0.347,0.829,0.612,1.163,0.798c0.329,0.184,0.824,0.354,1.493,0.506
						c0.666,0.152,1.552,0.27,2.657,0.35v-2.957c-2.209-0.156-4.056-0.332-5.535-0.525c-1.483-0.193-2.686-0.467-3.606-0.824
						c-0.926-0.355-1.385-0.814-1.385-1.373c0-0.73,0.902-1.328,2.705-1.793c1.805-0.467,4.412-0.738,7.821-0.814v-0.675
						c0-0.355,0.52-0.534,1.555-0.534C103.872,308.718,104.4,308.892,104.4,309.241z M101.264,313.602v-2.435
						c-1.385,0.105-2.463,0.246-3.237,0.421c-0.777,0.173-1.162,0.436-1.162,0.788c0,0.334,0.361,0.588,1.088,0.758
						C98.677,313.308,99.78,313.462,101.264,313.602z M104.4,315.492v2.784c1.664-0.084,2.948-0.255,3.854-0.515
						c0.906-0.259,1.359-0.56,1.359-0.903c0-0.367-0.443-0.654-1.32-0.854C107.41,315.802,106.114,315.632,104.4,315.492z"/>
				</g>
			</g>
			<g>
				<path style="fill:#8D5800;" d="M53.256,311.209c0,8.347,22.196,15.111,49.571,15.111c27.379,0,49.576-6.765,49.576-15.111
					v-8.925l-99.148,0.489V311.209z"/>
				<path style="fill:#AF6C00;" d="M152.679,303.089c0,7.059-22.231,12.779-49.658,12.779c-27.422,0-49.654-5.721-49.654-12.779
					c0-7.06,22.232-12.782,49.654-12.782C130.447,290.307,152.679,296.028,152.679,303.089z"/>
				<path style="fill:#F9B233;" d="M151.02,303.089c0,6.822-21.489,12.354-48,12.354c-26.508,0-47.999-5.531-47.999-12.354
					c0-6.825,21.491-12.355,47.999-12.355C129.531,290.733,151.02,296.264,151.02,303.089z"/>
				<path style="fill:#FECA33;" d="M131.071,308.042c-9.816,1.041-20.756,1.322-30.952,0.463
					c-10.312-0.869-19.122-2.663-24.596-5.086c-5.565-2.463-7.95-5.391-7.241-8.229c-7.227,2.103-11.613,4.867-11.613,7.898
					c0,6.589,20.754,11.931,46.352,11.931c23.16,0,42.35-4.372,45.801-10.083C143.886,306.286,137.653,307.344,131.071,308.042z"/>
				<path style="fill:#AF6C00;" d="M141.935,303.185c0,5.571-17.545,10.088-39.191,10.088c-21.643,0-39.188-4.517-39.188-10.088
					c0-5.57,17.545-10.088,39.188-10.088C124.39,293.097,141.935,297.614,141.935,303.185z"/>
				<path style="fill:#F9B233;" d="M138.481,303.185c0,5.079-16.001,9.198-35.738,9.198c-19.734,0-35.735-4.119-35.735-9.198
					c0-5.08,16.001-9.199,35.735-9.199C122.48,293.985,138.481,298.104,138.481,303.185z"/>
				<path style="fill:#EDEDED;" d="M102.743,293.979c-6.484,0-12.56,0.447-17.805,1.225c5.344,1.432,9.318,3.254,10.879,5.205
					c2.729,3.416,2.452,8.411-6.596,11.297c4.17,0.439,8.736,0.683,13.521,0.683c19.752,0,35.762-4.12,35.762-9.204
					C138.505,298.102,122.495,293.979,102.743,293.979z"/>
				<path style="fill:#AF6C00;" d="M116.331,303.433c-0.643-0.377-1.568-0.705-2.738-0.973c-1.1-0.258-2.359-0.456-3.751-0.592
					c-1.012-0.101-2.31-0.208-3.868-0.324v-1.613c0.384,0.118,0.658,0.262,0.837,0.438c0.667,0.626,2.319,0.971,4.657,0.971
					c1.268,0,2.407-0.121,3.299-0.35c0.89-0.229,1.363-0.52,1.363-0.836c0-0.25-0.25-0.518-0.746-0.798
					c-0.467-0.265-1.131-0.524-1.951-0.763c-1.094-0.33-2.396-0.582-3.875-0.746c-1.046-0.115-2.244-0.203-3.584-0.261v-0.333
					c0-0.684-1.627-0.928-3.153-0.928c-1.516,0-3.13,0.248-3.13,0.94v0.316c-3.097,0.125-5.569,0.423-7.363,0.887
					c-2.1,0.543-3.164,1.242-3.164,2.078c0,0.64,0.554,1.177,1.646,1.6c1.073,0.413,2.488,0.736,4.209,0.959
					c1.298,0.17,2.866,0.326,4.672,0.469v2.009c-0.016-0.003-0.025-0.005-0.039-0.009c-0.5-0.115-0.874-0.238-1.109-0.373
					c-0.303-0.168-0.673-0.422-1.092-0.75c-0.305-0.248-0.868-0.447-1.68-0.588c-0.774-0.137-1.702-0.205-2.76-0.205
					c-1.339,0-2.527,0.127-3.439,0.369c-0.895,0.236-1.37,0.524-1.37,0.832c0,0.329,0.272,0.664,0.811,1
					c0.529,0.328,1.352,0.647,2.44,0.948c1.094,0.299,2.465,0.552,4.077,0.751c1.231,0.152,2.624,0.265,4.161,0.336v1.367
					c0,0.277,0.199,0.491,0.616,0.654c0.31,0.121,1.049,0.322,2.563,0.322c1.809,0,2.488-0.293,2.695-0.418
					c0.279-0.17,0.408-0.395,0.408-0.705v-1.226c2-0.083,3.795-0.248,5.345-0.489c1.95-0.303,3.45-0.704,4.464-1.188
					c1-0.479,1.509-1.002,1.509-1.55C117.291,304.221,116.968,303.808,116.331,303.433z M98.438,300.388
					c0-0.344,0.47-0.449,0.621-0.482c0.183-0.043,0.396-0.08,0.631-0.117v1.191c-0.265-0.043-0.487-0.086-0.674-0.131
					C98.876,300.815,98.438,300.712,98.438,300.388z M108.038,304.872c0,0.242-0.31,0.447-0.953,0.631
					c-0.307,0.088-0.676,0.162-1.111,0.223v-1.624c0.514,0.068,0.939,0.141,1.273,0.217
					C107.589,304.397,108.038,304.538,108.038,304.872z"/>
				<g>
					<path style="fill:#F9DA1B;" d="M104.4,297.253v0.688c1.763,0.045,3.273,0.14,4.534,0.279c1.26,0.139,2.358,0.351,3.301,0.635
						c0.738,0.217,1.311,0.44,1.715,0.668c0.403,0.23,0.604,0.44,0.604,0.631c0,0.213-0.299,0.395-0.9,0.549
						c-0.603,0.154-1.33,0.232-2.187,0.232c-1.614,0-2.659-0.225-3.139-0.674c-0.544-0.53-1.853-0.881-3.928-1.056v2.646
						c2.042,0.144,3.669,0.274,4.882,0.394c1.209,0.118,2.292,0.29,3.247,0.516c1.022,0.232,1.809,0.51,2.36,0.836
						c0.552,0.324,0.826,0.679,0.826,1.065c0,0.483-0.441,0.937-1.321,1.357c-0.882,0.422-2.181,0.766-3.892,1.033
						c-1.713,0.268-3.745,0.425-6.103,0.478v1.584c0,0.248-0.095,0.432-0.284,0.547c-0.19,0.115-0.607,0.172-1.246,0.172
						c-0.595,0-1.012-0.048-1.25-0.141c-0.239-0.094-0.356-0.238-0.356-0.432v-1.718c-1.928-0.056-3.614-0.173-5.054-0.35
						c-1.441-0.179-2.645-0.399-3.606-0.665c-0.964-0.266-1.678-0.54-2.138-0.826c-0.461-0.287-0.691-0.567-0.691-0.844
						c0-0.203,0.309-0.387,0.925-0.549c0.618-0.164,1.388-0.246,2.311-0.246c0.742,0,1.367,0.045,1.878,0.135
						c0.51,0.088,0.864,0.213,1.062,0.374c0.444,0.349,0.829,0.614,1.163,0.798c0.329,0.184,0.824,0.353,1.493,0.506
						c0.666,0.152,1.552,0.27,2.657,0.351v-2.957c-2.209-0.157-4.056-0.333-5.535-0.526c-1.483-0.192-2.686-0.467-3.606-0.822
						c-0.926-0.355-1.385-0.814-1.385-1.373c0-0.73,0.902-1.328,2.705-1.794c1.805-0.466,4.412-0.738,7.821-0.813v-0.676
						c0-0.355,0.52-0.533,1.555-0.533C103.872,296.732,104.4,296.905,104.4,297.253z M101.264,301.615v-2.435
						c-1.385,0.105-2.463,0.245-3.237,0.419c-0.777,0.174-1.162,0.437-1.162,0.788c0,0.334,0.361,0.59,1.088,0.76
						C98.677,301.319,99.78,301.476,101.264,301.615z M104.4,303.504v2.786c1.664-0.085,2.948-0.257,3.854-0.517
						c0.906-0.258,1.359-0.558,1.359-0.901c0-0.369-0.443-0.654-1.32-0.856C107.41,303.814,106.114,303.646,104.4,303.504z"/>
				</g>
			</g>
			<g>
				<path style="fill:#8D5800;" d="M53.256,299.222c0,8.346,22.196,15.112,49.571,15.112c27.379,0,49.576-6.767,49.576-15.112
					v-8.926l-99.148,0.489V299.222z"/>
				<path style="fill:#AF6C00;" d="M152.679,291.101c0,7.061-22.231,12.781-49.658,12.781c-27.422,0-49.654-5.721-49.654-12.781
					c0-7.06,22.232-12.781,49.654-12.781C130.447,278.319,152.679,284.04,152.679,291.101z"/>
				<path style="fill:#F9B233;" d="M151.02,291.101c0,6.824-21.489,12.355-48,12.355c-26.508,0-47.999-5.531-47.999-12.355
					c0-6.824,21.491-12.355,47.999-12.355C129.531,278.745,151.02,284.276,151.02,291.101z"/>
				<path style="fill:#FECA33;" d="M131.071,296.054c-9.816,1.043-20.756,1.322-30.952,0.465
					c-10.312-0.869-19.122-2.665-24.596-5.086c-5.565-2.463-7.95-5.391-7.241-8.229c-7.227,2.103-11.613,4.867-11.613,7.896
					c0,6.59,20.754,11.931,46.352,11.931c23.16,0,42.35-4.372,45.801-10.083C143.886,294.3,137.653,295.357,131.071,296.054z"/>
				<path style="fill:#AF6C00;" d="M141.935,291.196c0,5.573-17.545,10.088-39.191,10.088c-21.643,0-39.188-4.515-39.188-10.088
					c0-5.57,17.545-10.086,39.188-10.086C124.39,281.11,141.935,285.626,141.935,291.196z"/>
				<path style="fill:#F9B233;" d="M138.481,291.196c0,5.081-16.001,9.199-35.738,9.199c-19.734,0-35.735-4.118-35.735-9.199
					c0-5.08,16.001-9.199,35.735-9.199C122.48,281.997,138.481,286.116,138.481,291.196z"/>
				<path style="fill:#EDEDED;" d="M102.743,281.992c-6.484,0-12.56,0.446-17.805,1.225c5.344,1.431,9.318,3.255,10.879,5.206
					c2.729,3.415,2.452,8.411-6.596,11.295c4.17,0.44,8.736,0.684,13.521,0.684c19.752,0,35.762-4.121,35.762-9.205
					C138.505,286.114,122.495,281.992,102.743,281.992z"/>
				<path style="fill:#AF6C00;" d="M116.331,291.446c-0.643-0.377-1.568-0.705-2.738-0.973c-1.1-0.258-2.359-0.458-3.751-0.594
					c-1.012-0.101-2.31-0.208-3.868-0.324v-1.613c0.384,0.119,0.658,0.264,0.837,0.438c0.667,0.628,2.319,0.973,4.657,0.973
					c1.268,0,2.407-0.122,3.299-0.35c0.89-0.231,1.363-0.52,1.363-0.836c0-0.25-0.25-0.517-0.746-0.799
					c-0.467-0.266-1.131-0.523-1.951-0.763c-1.094-0.331-2.396-0.581-3.875-0.745c-1.046-0.115-2.244-0.205-3.584-0.263v-0.333
					c0-0.682-1.627-0.926-3.153-0.926c-1.516,0-3.13,0.248-3.13,0.939v0.315c-3.097,0.125-5.569,0.424-7.363,0.887
					c-2.1,0.545-3.164,1.243-3.164,2.079c0,0.639,0.554,1.176,1.646,1.601c1.073,0.412,2.488,0.735,4.209,0.959
					c1.298,0.168,2.866,0.326,4.672,0.469v2.007c-0.016-0.003-0.025-0.005-0.039-0.007c-0.5-0.115-0.874-0.24-1.109-0.373
					c-0.303-0.17-0.673-0.424-1.092-0.75c-0.305-0.249-0.868-0.447-1.68-0.59c-0.774-0.135-1.702-0.203-2.76-0.203
					c-1.339,0-2.527,0.127-3.439,0.367c-0.895,0.238-1.37,0.526-1.37,0.834c0,0.328,0.272,0.662,0.811,0.998
					c0.529,0.328,1.352,0.649,2.44,0.948c1.094,0.299,2.465,0.554,4.077,0.752c1.231,0.151,2.624,0.265,4.161,0.335v1.367
					c0,0.279,0.199,0.493,0.616,0.655c0.31,0.12,1.049,0.322,2.563,0.322c1.809,0,2.488-0.293,2.695-0.417
					c0.279-0.17,0.408-0.395,0.408-0.705v-1.227c2-0.082,3.795-0.247,5.345-0.49c1.95-0.303,3.45-0.703,4.464-1.186
					c1-0.479,1.509-1.002,1.509-1.552C117.291,292.233,116.968,291.821,116.331,291.446z M98.438,288.401
					c0-0.344,0.47-0.449,0.621-0.484c0.183-0.041,0.396-0.08,0.631-0.117v1.193c-0.265-0.045-0.487-0.086-0.674-0.131
					C98.876,288.829,98.438,288.726,98.438,288.401z M108.038,292.886c0,0.241-0.31,0.447-0.953,0.631
					c-0.307,0.088-0.676,0.162-1.111,0.223v-1.624c0.514,0.066,0.939,0.14,1.273,0.217
					C107.589,292.409,108.038,292.55,108.038,292.886z"/>
				<g>
					<path style="fill:#F9DA1B;" d="M104.4,285.266v0.687c1.763,0.047,3.273,0.141,4.534,0.279c1.26,0.141,2.358,0.352,3.301,0.637
						c0.738,0.217,1.311,0.438,1.715,0.668c0.403,0.229,0.604,0.439,0.604,0.631c0,0.211-0.299,0.395-0.9,0.549
						c-0.603,0.154-1.33,0.23-2.187,0.23c-1.614,0-2.659-0.223-3.139-0.672c-0.544-0.53-1.853-0.883-3.928-1.057v2.646
						c2.042,0.145,3.669,0.276,4.882,0.394c1.209,0.119,2.292,0.291,3.247,0.516c1.022,0.232,1.809,0.512,2.36,0.836
						c0.552,0.326,0.826,0.681,0.826,1.065c0,0.484-0.441,0.937-1.321,1.358c-0.882,0.423-2.181,0.767-3.892,1.033
						c-1.713,0.267-3.745,0.426-6.103,0.477v1.586c0,0.248-0.095,0.432-0.284,0.545c-0.19,0.115-0.607,0.172-1.246,0.172
						c-0.595,0-1.012-0.046-1.25-0.139c-0.239-0.096-0.356-0.238-0.356-0.434v-1.717c-1.928-0.055-3.614-0.172-5.054-0.35
						c-1.441-0.178-2.645-0.399-3.606-0.665c-0.964-0.265-1.678-0.54-2.138-0.826c-0.461-0.286-0.691-0.566-0.691-0.843
						c0-0.203,0.309-0.389,0.925-0.551c0.618-0.163,1.388-0.244,2.311-0.244c0.742,0,1.367,0.045,1.878,0.133
						c0.51,0.089,0.864,0.215,1.062,0.375c0.444,0.349,0.829,0.614,1.163,0.799c0.329,0.184,0.824,0.354,1.493,0.506
						c0.666,0.154,1.552,0.27,2.657,0.351v-2.959c-2.209-0.155-4.056-0.331-5.535-0.524c-1.483-0.193-2.686-0.467-3.606-0.824
						c-0.926-0.355-1.385-0.815-1.385-1.373c0-0.729,0.902-1.328,2.705-1.793c1.805-0.467,4.412-0.738,7.821-0.814v-0.675
						c0-0.355,0.52-0.534,1.555-0.534C103.872,284.743,104.4,284.917,104.4,285.266z M101.264,289.627v-2.435
						c-1.385,0.105-2.463,0.246-3.237,0.42c-0.777,0.175-1.162,0.436-1.162,0.789c0,0.334,0.361,0.588,1.088,0.758
						C98.677,289.333,99.78,289.488,101.264,289.627z M104.4,291.518v2.785c1.664-0.085,2.948-0.257,3.854-0.516
						c0.906-0.258,1.359-0.559,1.359-0.901c0-0.369-0.443-0.656-1.32-0.857C107.41,291.828,106.114,291.657,104.4,291.518z"/>
				</g>
			</g>
		</g>
	</g>
</g>
</svg>
